<?xml version="1.0" standalone="no"?>
<!DOCTYPE svg PUBLIC "-//W3C//DTD SVG 20010904//EN"
 "http://www.w3.org/TR/2001/REC-SVG-20010904/DTD/svg10.dtd">
<svg version="1.0" xmlns="http://www.w3.org/2000/svg"
 width="1263.000000pt" height="720.000000pt" viewBox="0 0 1263.000000 720.000000"
 preserveAspectRatio="xMidYMid meet">

<g transform="translate(0.000000,720.000000) scale(0.100000,-0.100000)"
fill="#000000" stroke="none">
<path d="M4693 5453 c-144 -92 -143 -90 -90 -145 16 -17 21 -30 18 -54 -1 -6
38 -35 86 -64 49 -30 111 -68 138 -85 28 -18 245 -153 482 -301 l433 -269 0
-415 0 -414 65 131 65 131 0 319 0 319 -342 212 c-677 419 -802 497 -805 507
-2 6 17 21 41 34 l44 24 438 -273 c242 -150 498 -309 571 -354 l132 -81 3
-267 3 -267 41 82 c93 185 94 187 94 360 l0 156 -167 104 c-93 57 -253 157
-358 222 -104 65 -309 192 -455 283 -146 91 -274 171 -285 177 -18 11 -36 2
-152 -72z"/>
<path d="M6685 5263 c-145 -292 -361 -732 -587 -1193 -75 -151 -199 -403 -276
-560 -77 -157 -198 -404 -269 -550 -72 -146 -194 -394 -272 -551 -77 -158
-141 -292 -141 -298 0 -8 115 -11 400 -11 l400 0 127 260 126 260 633 0 c538
0 633 -2 636 -14 2 -8 57 -125 123 -260 l119 -246 403 0 c263 0 403 3 403 10
0 6 -22 54 -49 108 -27 53 -110 221 -184 372 -74 151 -221 451 -327 665 -520
1054 -762 1546 -937 1905 -99 203 -183 371 -189 378 -1 2 -64 -122 -139 -275z
m210 -1489 c36 -75 65 -137 65 -139 0 -1 29 -63 64 -136 94 -199 126 -269 126
-280 0 -5 -133 -9 -330 -9 -181 0 -330 2 -330 5 0 3 29 65 64 138 35 72 86
179 114 237 97 205 153 320 158 320 2 0 33 -61 69 -136z"/>
<path d="M1655 5489 c-540 -52 -1054 -351 -1364 -795 -31 -44 -61 -89 -67
-100 -58 -103 -77 -143 -108 -220 -48 -121 -72 -214 -96 -373 -25 -168 -25
-264 0 -432 25 -162 51 -264 102 -388 184 -455 639 -856 1145 -1012 437 -134
954 -115 1373 52 192 77 382 188 523 306 l57 48 -67 64 c-38 35 -84 77 -103
94 -37 32 -208 188 -301 275 -31 28 -59 52 -63 52 -4 0 -31 -20 -59 -44 -138
-117 -319 -200 -517 -237 -100 -19 -358 -17 -463 4 -222 45 -410 142 -573 299
-153 147 -248 310 -293 503 -17 72 -15 339 3 406 63 240 182 419 383 576 138
107 301 182 483 220 117 24 354 24 470 -1 201 -42 411 -142 532 -253 18 -18
31 -22 42 -16 8 4 62 51 118 104 57 53 121 111 143 130 22 19 71 64 110 100
38 37 87 81 108 99 20 18 37 36 37 41 0 29 -282 219 -435 293 -259 126 -483
184 -795 206 -163 11 -197 11 -325 -1z"/>
<path d="M10050 5433 c0 -48 0 -48 53 -75 184 -97 437 -369 542 -584 117 -240
139 -509 65 -804 -19 -78 -104 -241 -178 -345 -112 -157 -268 -306 -409 -392
l-32 -19 63 -90 c150 -214 435 -616 493 -697 35 -48 63 -92 63 -97 0 -4 4 -10
8 -12 8 -3 54 -66 125 -170 l32 -48 878 0 877 0 0 335 0 335 -855 0 -855 0 0
340 0 340 640 0 640 0 0 340 0 340 -640 0 -640 0 0 335 0 335 855 0 855 0 0
340 0 340 -1290 0 -1290 0 0 -47z"/>
<path d="M8008 4438 l4 -1033 78 -160 c122 -252 425 -867 498 -1012 l67 -133
53 0 52 0 0 505 0 505 169 0 169 0 41 -57 c23 -32 185 -258 360 -503 l318
-445 457 -3 c251 -1 456 0 456 3 0 2 -14 24 -30 47 -17 24 -48 68 -68 98 -21
30 -65 93 -98 140 -34 47 -97 137 -142 200 -44 63 -85 120 -89 125 -5 6 -29
39 -53 75 -24 36 -50 71 -57 78 -7 8 -18 23 -24 34 -6 12 -55 82 -109 157 -53
75 -104 148 -114 163 l-17 26 48 28 c213 122 413 318 515 504 41 75 86 205
104 298 21 111 21 319 0 427 -52 265 -193 487 -430 678 -156 124 -327 207
-535 259 -84 21 -108 22 -856 25 l-771 4 4 -1033z m1392 335 c116 -32 189 -71
250 -133 108 -109 151 -253 116 -388 -43 -170 -155 -296 -314 -354 -53 -20
-81 -22 -374 -26 l-318 -4 0 467 0 467 283 -4 c245 -4 292 -7 357 -25z"/>
<path d="M4418 5122 c-37 -25 -66 -48 -63 -50 2 -2 23 -8 47 -13 82 -19 381
-178 557 -298 29 -20 63 -43 75 -51 92 -62 248 -207 331 -305 22 -26 45 -53
52 -60 16 -16 124 -189 148 -235 10 -19 33 -71 52 -115 l33 -80 0 275 0 276
-32 19 c-58 33 -493 302 -804 496 -166 104 -308 188 -315 188 -8 -1 -44 -22
-81 -47z"/>
<path d="M4110 4920 c-69 -44 -124 -84 -123 -88 1 -4 -6 -8 -15 -8 -9 0 -174
-99 -367 -220 -192 -121 -385 -242 -427 -268 l-78 -48 0 -264 c0 -145 -2 -264
-4 -264 -3 0 -79 47 -170 105 l-166 104 -61 -36 c-57 -34 -60 -38 -43 -50 11
-8 115 -73 232 -145 l212 -130 0 -369 0 -369 23 -13 c82 -51 787 -489 995
-619 140 -87 256 -158 258 -158 5 0 176 105 284 175 36 23 101 63 145 90 44
26 156 95 248 153 l168 105 74 151 c40 83 129 266 198 406 69 140 123 257 122
259 -2 1 -20 -29 -39 -67 -54 -108 -216 -352 -216 -327 0 5 7 17 17 27 9 10
13 21 9 25 -4 4 -10 3 -14 -2 -4 -6 -14 -11 -22 -11 -65 -5 -27 16 -643 -363
-180 -110 -330 -201 -332 -201 -2 0 -158 95 -347 212 -358 221 -462 281 -488
283 -9 0 -41 26 -71 56 -30 29 -81 69 -112 87 -44 26 -59 41 -64 63 -3 16 -9
29 -14 29 -5 0 -9 12 -9 26 0 14 -6 32 -14 40 -19 18 -17 395 2 402 7 2 12 19
12 38 0 19 4 34 10 34 5 0 9 10 9 23 -1 24 3 40 18 77 6 14 16 43 24 65 8 22
16 42 19 45 3 3 6 12 8 20 5 24 33 83 54 110 10 14 24 56 30 93 11 65 12 68
59 98 27 17 49 37 49 44 0 7 7 15 15 19 8 3 15 12 15 19 0 8 9 21 20 28 10 8
20 20 22 28 2 8 18 28 36 44 17 16 32 35 32 42 0 8 9 17 20 20 11 3 20 14 20
24 0 10 11 23 25 29 14 7 30 23 37 37 6 14 18 25 27 25 15 0 61 46 61 61 0 4
9 10 19 14 11 3 23 15 26 26 4 10 13 19 21 19 9 0 34 19 57 42 22 22 85 70
139 105 83 54 109 73 96 73 -2 0 -59 -36 -128 -80z"/>
<path d="M5632 3465 c-17 -37 -14 -45 4 -12 9 16 14 31 11 33 -2 2 -9 -7 -15
-21z"/>
<path d="M105 1946 c-69 -30 -104 -103 -91 -193 9 -65 45 -109 105 -127 83
-24 158 5 193 75 23 46 22 49 -10 49 -21 0 -30 -7 -39 -30 -7 -18 -25 -36 -47
-47 -33 -15 -41 -16 -79 -3 -51 18 -67 46 -67 123 0 51 4 62 29 88 24 24 38
29 76 29 38 0 52 -5 77 -30 29 -29 68 -40 68 -20 0 6 -7 24 -15 39 -26 52
-132 77 -200 47z"/>
<path d="M441 1946 c-19 -7 -49 -29 -65 -50 -28 -34 -31 -45 -31 -109 0 -56 4
-78 20 -99 42 -56 123 -84 190 -67 88 24 128 78 128 172 -1 49 -6 65 -30 95
-53 67 -130 88 -212 58z m142 -56 c76 -60 48 -205 -44 -225 -35 -8 -90 9 -113
34 -43 48 -40 135 6 182 24 24 38 29 77 29 33 0 56 -6 74 -20z"/>
<path d="M2534 1940 c-97 -48 -118 -193 -41 -278 45 -49 150 -58 212 -18 22
14 25 15 25 1 0 -8 9 -15 20 -15 18 0 20 7 20 85 l0 85 -80 0 c-73 0 -80 -2
-80 -20 0 -18 7 -20 55 -20 47 0 55 -3 55 -19 0 -10 -12 -30 -26 -44 -60 -60
-158 -38 -183 41 -17 56 -7 107 29 144 23 23 37 28 75 28 39 0 52 -5 77 -31
21 -20 38 -29 55 -27 l25 3 -24 35 c-45 68 -135 89 -214 50z"/>
<path d="M4735 1946 c-37 -16 -82 -67 -91 -102 -11 -44 2 -133 23 -162 46 -62
142 -84 212 -48 34 18 71 69 71 99 0 31 -46 21 -60 -13 -24 -59 -106 -75 -160
-32 -47 38 -44 157 5 200 41 34 109 31 145 -8 35 -37 75 -42 64 -7 -22 72
-127 109 -209 73z"/>
<path d="M6265 1944 c-45 -23 -73 -53 -86 -92 -16 -49 -7 -133 19 -169 45 -64
148 -85 215 -45 29 17 36 18 41 6 3 -8 15 -14 26 -14 19 0 20 6 20 85 l0 85
-85 0 c-78 0 -85 -2 -85 -20 0 -18 7 -20 55 -20 46 0 55 -3 55 -18 0 -48 -71
-90 -129 -77 -16 3 -41 18 -55 32 -22 22 -26 34 -26 88 0 56 3 67 29 94 23 25
37 31 69 31 54 0 93 -16 99 -40 4 -14 14 -20 34 -20 30 0 31 11 2 57 -30 47
-140 67 -198 37z"/>
<path d="M7354 1946 c-61 -27 -84 -96 -45 -135 19 -19 33 -24 146 -54 46 -12
50 -15 50 -42 0 -39 -35 -58 -94 -50 -49 6 -69 18 -82 53 -10 27 -42 27 -47
-1 -10 -49 63 -100 143 -100 86 0 135 35 135 98 0 56 -22 74 -123 100 -70 17
-82 24 -85 43 -5 35 15 52 62 52 44 0 86 -22 86 -46 0 -9 11 -14 30 -14 17 0
30 2 30 5 0 14 -30 62 -48 78 -27 24 -117 32 -158 13z"/>
<path d="M8620 1949 c-90 -36 -126 -153 -77 -248 63 -123 254 -106 292 27 5
19 3 22 -19 22 -18 0 -30 -9 -41 -30 -34 -66 -121 -76 -169 -19 -44 52 -30
170 23 199 45 24 135 5 146 -32 4 -12 16 -18 35 -18 32 0 32 11 3 57 -28 43
-132 66 -193 42z"/>
<path d="M10774 1940 c-104 -52 -119 -222 -26 -289 87 -62 219 -36 263 51 17
32 20 54 17 100 -5 70 -27 104 -88 136 -55 27 -112 28 -166 2z m159 -54 c85
-79 35 -221 -78 -221 -34 0 -50 6 -74 29 -53 51 -50 152 6 196 38 29 112 28
146 -4z"/>
<path d="M710 1790 l0 -160 30 0 29 0 3 113 3 112 38 -101 c20 -56 37 -106 37
-113 0 -8 12 -11 32 -9 30 3 33 7 72 113 l41 110 3 -112 3 -113 29 0 30 0 0
160 0 160 -39 0 c-43 0 -35 15 -112 -193 -23 -63 -28 -63 -48 -2 -7 22 -27 75
-43 118 l-29 77 -40 0 -39 0 0 -160z"/>
<path d="M1100 1790 l0 -160 30 0 30 0 0 65 0 65 74 0 c66 0 78 3 105 26 25
20 31 34 31 64 0 83 -28 100 -170 100 l-100 0 0 -160z m184 110 c21 -8 26 -16
26 -44 0 -19 -5 -38 -11 -42 -6 -3 -40 -9 -75 -12 l-64 -5 0 57 0 56 49 0 c27
0 61 -4 75 -10z"/>
<path d="M1410 1821 c0 -123 1 -131 25 -159 31 -37 97 -56 146 -42 94 27 109
55 109 215 l0 116 -27 -3 -28 -3 -5 -121 c-3 -79 -10 -127 -18 -137 -33 -40
-119 -28 -141 19 -6 14 -11 74 -11 134 l0 110 -25 0 -25 0 0 -129z"/>
<path d="M1707 1943 c-4 -3 -7 -12 -7 -20 0 -9 17 -13 60 -13 l60 0 0 -140 0
-140 30 0 30 0 0 141 0 140 58 -2 c52 -3 57 -1 60 19 3 22 2 22 -141 22 -79 0
-147 -3 -150 -7z"/>
<path d="M2020 1790 l0 -160 30 0 30 0 0 160 0 160 -30 0 -30 0 0 -160z"/>
<path d="M2130 1790 l0 -160 25 0 24 0 3 122 3 121 83 -121 c75 -109 86 -122
113 -122 l29 0 0 160 0 160 -25 0 -25 0 0 -122 0 -123 -32 46 c-18 25 -55 80
-83 122 -45 69 -53 76 -82 77 l-33 0 0 -160z"/>
<path d="M2969 1790 l-67 -160 28 0 c24 0 31 6 46 45 l17 45 68 0 67 0 18 -45
c15 -39 20 -45 46 -45 25 0 29 3 23 18 -11 25 -95 242 -107 275 -8 22 -16 27
-41 27 -32 0 -33 -2 -98 -160z m135 -8 c7 -21 5 -22 -39 -22 -46 0 -47 1 -40
27 3 15 13 43 22 62 l15 36 18 -40 c9 -22 20 -50 24 -63z"/>
<path d="M3240 1790 l0 -160 25 0 24 0 3 121 3 120 83 -120 c74 -109 86 -121
112 -121 l30 0 0 160 0 160 -25 0 -24 0 -3 -122 -3 -121 -80 121 c-75 114 -82
122 -112 122 l-33 0 0 -160z"/>
<path d="M3570 1789 l0 -161 109 4 c101 3 112 5 136 28 40 37 55 73 55 127 -1
61 -26 111 -69 140 -30 20 -46 23 -132 23 l-99 0 0 -161z m217 86 c33 -38 33
-132 -1 -171 -20 -24 -32 -28 -90 -32 l-66 -4 0 122 0 123 67 -6 c57 -4 71 -9
90 -32z"/>
<path d="M4104 1913 c-9 -21 -23 -54 -31 -73 -27 -62 -32 -74 -58 -137 -14
-34 -25 -65 -25 -68 0 -3 11 -5 25 -5 21 0 29 9 45 45 l20 46 66 -3 67 -3 16
-42 c13 -37 19 -43 43 -43 15 0 28 2 28 4 0 3 -27 75 -61 160 -59 153 -61 156
-90 156 -25 0 -33 -6 -45 -37z m82 -129 c6 -23 4 -24 -40 -24 -25 0 -46 3 -46
7 0 4 10 33 23 65 l22 58 18 -41 c9 -23 20 -52 23 -65z"/>
<path d="M4327 1943 c-4 -3 -7 -75 -7 -160 l0 -153 30 0 30 0 0 65 0 65 74 0
c47 0 77 -5 84 -13 6 -7 12 -35 14 -62 3 -49 4 -50 36 -53 29 -3 32 -1 24 15
-5 10 -10 38 -11 63 -2 25 -9 52 -16 60 -11 13 -10 19 6 39 28 34 24 77 -10
112 -29 29 -31 29 -139 29 -60 0 -112 -3 -115 -7z m204 -43 c22 -12 26 -59 7
-78 -7 -7 -42 -12 -85 -12 l-73 0 0 43 c0 24 3 47 7 50 10 11 122 8 144 -3z"/>
<path d="M4980 1790 l0 -160 30 0 30 0 0 75 0 75 85 0 85 0 0 -75 0 -75 30 0
30 0 0 160 0 160 -30 0 -30 0 0 -65 0 -65 -85 0 -85 0 0 65 0 65 -30 0 -30 0
0 -160z"/>
<path d="M5320 1790 l0 -160 30 0 30 0 0 160 0 160 -30 0 -30 0 0 -160z"/>
<path d="M5465 1793 c63 -158 63 -158 95 -158 32 0 32 1 91 149 32 82 59 153
59 158 0 11 -47 10 -55 -2 -7 -11 -65 -166 -72 -195 -15 -53 -26 -46 -55 32
-16 43 -33 85 -37 93 -5 9 -12 30 -16 48 -6 28 -11 32 -40 32 l-33 0 63 -157z"/>
<path d="M5740 1790 l0 -160 30 0 30 0 0 160 0 160 -30 0 -30 0 0 -160z"/>
<path d="M5850 1789 l0 -160 26 3 27 3 -2 113 c-1 61 2 112 6 112 4 0 44 -52
88 -115 74 -107 81 -115 112 -115 l33 0 0 160 0 160 -30 0 -29 0 -3 -122 -3
-121 -80 121 c-75 114 -82 122 -112 122 l-33 0 0 -161z"/>
<path d="M6660 1791 l0 -161 30 0 30 0 0 65 0 65 69 0 c61 0 72 -3 85 -22 9
-12 16 -42 16 -65 0 -43 0 -43 37 -43 29 0 34 3 25 12 -7 7 -12 33 -12 58 0
26 -7 56 -16 68 -15 21 -15 25 0 41 22 24 20 84 -3 112 -18 22 -27 24 -140 27
l-121 4 0 -161z m208 103 c24 -17 29 -53 10 -72 -7 -7 -42 -12 -85 -12 l-73 0
0 50 0 50 63 0 c40 0 70 -5 85 -16z"/>
<path d="M6990 1790 l0 -160 135 0 c128 0 135 1 135 20 0 19 -7 20 -105 20
l-105 0 0 50 0 50 90 0 c89 0 90 0 90 25 0 25 -1 25 -90 25 l-90 0 0 45 0 45
100 0 c93 0 100 1 100 20 0 19 -7 20 -130 20 l-130 0 0 -160z"/>
<path d="M7600 1790 l0 -160 164 0 163 0 17 45 18 45 67 0 68 0 13 -41 c15
-43 26 -53 58 -47 18 3 15 15 -42 158 -60 149 -63 155 -92 158 -30 3 -31 1
-82 -120 -28 -68 -57 -139 -66 -158 -8 -20 -15 -27 -15 -17 -1 15 -13 17 -106
17 l-105 0 0 50 0 49 93 3 c84 3 92 5 92 23 0 18 -8 20 -92 23 l-93 3 0 44 0
45 100 0 c93 0 100 1 100 20 0 19 -7 20 -130 20 l-130 0 0 -160z m456 36 c12
-30 19 -57 16 -60 -8 -9 -94 -7 -90 2 2 4 12 31 22 60 11 29 22 52 25 52 4 0
16 -25 27 -54z"/>
<path d="M8210 1790 l0 -160 30 0 30 0 0 65 0 65 68 0 c37 0 72 -4 78 -8 6 -4
14 -33 18 -64 l7 -58 37 0 c28 0 33 3 24 12 -7 7 -12 33 -12 58 0 25 -7 56
-16 68 -14 20 -14 24 0 38 16 16 21 69 10 99 -13 33 -59 45 -169 45 l-105 0 0
-160z m210 100 c47 -47 14 -80 -81 -80 l-69 0 0 50 0 50 65 0 c52 0 69 -4 85
-20z"/>
<path d="M8870 1790 l0 -160 25 0 c23 0 24 3 27 73 l3 72 85 0 85 0 3 -72 c3
-70 4 -73 27 -73 l25 0 0 160 0 160 -25 0 c-24 0 -25 -2 -25 -65 l0 -66 -87 3
-88 3 -3 63 c-3 58 -4 62 -27 62 l-25 0 0 -160z"/>
<path d="M9320 1790 l0 -160 136 0 c124 0 135 2 132 18 -3 15 -17 17 -106 20
l-102 3 0 49 0 50 90 0 c89 0 90 0 90 25 0 25 -1 25 -90 25 l-90 0 0 45 0 45
100 0 c93 0 100 1 100 20 0 19 -7 20 -130 20 l-130 0 0 -160z"/>
<path d="M9620 1790 l0 -160 25 0 24 0 3 123 3 122 35 -51 c19 -28 57 -83 83
-122 42 -62 53 -72 78 -72 l29 0 0 160 0 160 -25 0 -25 0 0 -115 c0 -63 -3
-115 -7 -115 -5 0 -42 52 -83 115 -70 108 -77 115 -107 115 l-33 0 0 -160z"/>
<path d="M9930 1938 c1 -7 27 -78 59 -158 59 -145 59 -145 91 -145 l32 0 59
150 c32 83 59 153 59 158 0 4 -12 7 -27 7 -27 0 -30 -6 -73 -125 -24 -68 -48
-121 -52 -117 -4 4 -27 59 -50 122 -40 105 -46 115 -71 118 -17 2 -27 -1 -27
-10z"/>
<path d="M10260 1790 l0 -160 30 0 30 0 0 160 0 160 -30 0 -30 0 0 -160z"/>
<path d="M10377 1943 c-4 -3 -7 -75 -7 -160 l0 -153 30 0 30 0 0 65 0 65 73 0
c43 0 78 -5 85 -12 7 -7 12 -36 12 -65 l0 -53 35 0 c32 0 35 2 25 19 -5 11
-10 40 -10 64 0 28 -6 49 -15 57 -14 12 -14 15 0 30 9 10 18 34 22 53 5 31 1
40 -25 67 -30 30 -31 30 -140 30 -60 0 -112 -3 -115 -7z m204 -43 c22 -12 26
-59 7 -78 -7 -7 -42 -12 -85 -12 l-73 0 0 50 0 50 66 0 c36 0 74 -5 85 -10z"/>
<path d="M11060 1790 l0 -160 25 0 25 0 0 115 c0 63 4 115 8 115 5 0 44 -52
87 -115 74 -108 81 -115 112 -115 l33 0 0 160 0 160 -30 0 -29 0 -3 -121 -3
-121 -80 121 c-75 114 -82 121 -112 121 l-33 0 0 -160z"/>
<path d="M11390 1790 l0 -160 25 0 24 0 3 118 c3 122 3 122 40 22 11 -30 24
-64 28 -75 5 -11 12 -30 15 -42 10 -35 59 -32 73 5 6 15 25 68 44 117 l33 90
3 -117 3 -118 24 0 25 0 0 161 0 160 -37 -3 c-41 -3 -33 11 -111 -205 -8 -24
-18 -43 -21 -43 -4 0 -17 28 -29 63 -69 203 -61 187 -103 187 l-39 0 0 -160z"/>
<path d="M11780 1790 l0 -160 135 0 c128 0 135 1 135 20 0 19 -7 20 -105 20
l-105 0 0 50 0 50 96 0 c93 0 95 1 92 23 -3 21 -8 22 -95 25 l-93 3 0 44 0 44
103 3 c83 2 102 6 102 18 0 12 -23 15 -132 18 l-133 3 0 -161z"/>
<path d="M12080 1790 l0 -160 30 0 29 0 3 117 3 117 79 -117 c75 -110 82 -117
113 -117 l33 0 0 160 0 160 -30 0 -30 0 0 -122 0 -121 -71 104 c-39 57 -76
112 -82 122 -7 10 -24 17 -44 17 l-33 0 0 -160z"/>
<path d="M12380 1930 c0 -18 7 -20 60 -20 l60 0 0 -140 0 -140 30 0 30 0 0
140 0 140 35 0 c28 0 35 4 35 20 0 19 -7 20 -125 20 -118 0 -125 -1 -125 -20z"/>
</g>
</svg>
