<?xml version="1.0" standalone="no"?>
<!DOCTYPE svg PUBLIC "-//W3C//DTD SVG 20010904//EN"
 "http://www.w3.org/TR/2001/REC-SVG-20010904/DTD/svg10.dtd">
<svg version="1.0" xmlns="http://www.w3.org/2000/svg"
 width="1008.000000pt" height="1008.000000pt" viewBox="0 0 1008.000000 1008.000000"
 preserveAspectRatio="xMidYMid meet">

<g transform="translate(0.000000,1008.000000) scale(0.100000,-0.100000)"
fill="#000000" stroke="none">
<path d="M7571 10071 c-11 -7 -13 -306 -10 -1852 l4 -1844 -113 -80 c-62 -45
-158 -104 -215 -133 -148 -75 -407 -152 -513 -152 -56 0 -71 -8 -208 -110 -53
-38 -98 -70 -101 -70 -3 0 -40 -26 -83 -57 -44 -32 -89 -65 -102 -73 -13 -8
-58 -41 -102 -72 -43 -32 -83 -58 -88 -58 -28 0 1 -26 118 -104 338 -226 725
-370 1117 -416 164 -19 397 -24 497 -11 301 40 439 70 633 139 196 70 277 108
475 225 284 168 591 463 782 752 81 123 205 357 238 449 11 28 33 89 50 136
17 47 40 121 51 165 66 261 68 277 66 670 -2 342 -3 353 -31 480 -53 250 -158
527 -278 739 -194 343 -482 651 -804 861 -49 31 -101 66 -115 76 -25 16 -237
125 -304 154 -92 41 -250 93 -375 124 -170 42 -556 83 -589 62z"/>
<path d="M2345 10064 c-33 -2 -96 -9 -140 -15 -44 -7 -91 -13 -105 -14 -56 -5
-124 -20 -250 -57 -25 -7 -51 -12 -57 -11 -7 0 -13 -3 -13 -8 0 -5 -7 -6 -15
-3 -8 4 -21 2 -28 -3 -6 -5 -25 -10 -42 -12 -16 -2 -31 -7 -33 -12 -2 -5 -12
-9 -22 -9 -25 0 -51 -11 -46 -19 2 -3 -6 -7 -18 -7 -12 -1 -47 -13 -77 -27
-30 -13 -63 -28 -74 -31 -15 -5 -16 -9 -6 -15 10 -6 9 -10 -4 -14 -11 -5 -14
-3 -9 5 5 8 2 9 -10 5 -10 -4 -20 -7 -22 -7 -3 0 -2 -4 1 -10 4 -6 -1 -7 -11
-3 -13 5 -15 3 -9 -7 5 -8 4 -11 -3 -7 -15 10 -43 -3 -35 -16 3 -5 1 -7 -5 -3
-15 9 -164 -83 -155 -97 4 -6 0 -8 -10 -4 -10 4 -23 -3 -37 -21 -12 -15 -18
-21 -14 -13 5 10 -2 8 -24 -5 -22 -12 -28 -20 -19 -26 8 -5 4 -8 -11 -8 -13 0
-21 -3 -19 -7 3 -5 -7 -17 -22 -28 -26 -19 -26 -19 -12 0 7 11 1 7 -15 -10
-15 -16 -32 -29 -37 -27 -5 1 -11 -7 -14 -18 -3 -12 -14 -20 -26 -20 -11 0
-17 -3 -14 -7 7 -7 -21 -43 -33 -43 -10 0 -177 -171 -230 -235 -22 -27 -46
-49 -51 -47 -6 1 -8 -2 -5 -7 4 -5 -4 -17 -16 -26 -13 -8 -22 -18 -20 -22 2
-4 -2 -10 -10 -13 -7 -3 -13 -12 -13 -20 0 -8 -5 -14 -12 -13 -8 2 -10 -4 -6
-14 4 -10 2 -14 -4 -10 -13 8 -35 -16 -31 -34 2 -8 -2 -13 -9 -12 -7 2 -10 -3
-7 -11 3 -8 0 -17 -7 -22 -8 -4 -10 -3 -5 4 15 24 -2 11 -19 -14 -9 -15 -12
-23 -6 -20 7 4 9 1 5 -8 -3 -9 -11 -14 -16 -13 -6 1 -13 -4 -16 -12 -3 -9 0
-11 8 -6 9 5 11 4 6 -3 -4 -7 -14 -12 -22 -12 -13 0 -18 -12 -15 -32 0 -5 -3
-8 -8 -8 -5 0 -12 -7 -15 -16 -4 -9 -2 -13 5 -8 8 4 7 0 0 -15 -7 -11 -14 -21
-17 -21 -3 0 -2 5 2 12 5 7 3 8 -5 3 -7 -4 -11 -16 -8 -26 3 -10 0 -22 -5 -26
-7 -4 -8 -1 -4 8 4 8 0 5 -8 -6 -9 -10 -15 -24 -13 -29 2 -5 -5 -18 -15 -28
-10 -10 -15 -24 -11 -34 4 -11 2 -15 -4 -11 -6 4 -14 0 -17 -9 -8 -22 -8 -26
4 -19 6 3 7 -1 4 -9 -3 -9 -10 -14 -14 -11 -10 6 -25 -34 -16 -42 3 -3 -1 -11
-10 -17 -8 -6 -17 -29 -19 -51 -2 -22 -8 -41 -14 -43 -6 -2 -9 -7 -6 -12 6
-10 -15 -60 -25 -60 -3 0 -6 -10 -7 -22 -1 -51 -3 -59 -15 -52 -6 4 -8 3 -5
-2 3 -6 -7 -64 -22 -130 -36 -151 -52 -254 -60 -376 l-6 -98 1205 -2 c663 -2
1423 -1 1689 1 l483 4 -7 -74 c-29 -306 -202 -568 -465 -703 l-85 -44 -47 25
c-98 51 -199 40 -273 -32 -57 -56 -77 -104 -74 -180 4 -90 48 -159 130 -203
49 -27 139 -29 194 -7 38 17 125 98 125 118 0 7 53 37 118 68 64 32 149 81
187 110 265 200 431 503 452 826 l6 93 105 0 105 0 -6 -108 c-31 -560 -399
-1039 -929 -1213 l-67 -21 -40 31 c-55 44 -130 59 -205 42 -100 -22 -176 -120
-176 -226 0 -102 76 -202 170 -225 107 -26 207 13 265 103 32 51 35 53 126 82
404 128 759 444 944 840 82 174 136 393 152 608 l6 87 120 0 120 0 -6 -167
c-24 -722 -472 -1353 -1155 -1629 -89 -36 -248 -84 -277 -84 -9 0 -38 22 -65
49 -96 96 -232 96 -330 1 -39 -38 -50 -57 -60 -102 -26 -113 19 -217 115 -267
97 -50 231 -25 292 56 20 26 36 34 101 48 111 24 299 89 407 139 435 204 779
542 985 968 131 272 195 529 207 831 l6 157 130 0 130 0 -7 -172 c-3 -95 -7
-180 -7 -188 -2 -29 -39 -245 -46 -265 -3 -11 -7 -27 -8 -35 -5 -40 -36 -140
-89 -282 -32 -84 -135 -291 -189 -377 -125 -202 -353 -457 -531 -595 -170
-132 -429 -282 -580 -336 -28 -10 -76 -28 -106 -40 -58 -22 -277 -80 -304 -80
-13 0 -16 11 -16 55 l0 55 -250 0 -250 0 0 -250 0 -250 250 0 250 0 0 78 0 79
73 13 c371 66 789 260 1107 517 407 328 723 824 849 1333 55 222 63 288 65
535 2 127 4 235 6 240 8 22 -13 196 -41 339 -155 785 -673 1447 -1395 1784
-335 156 -643 228 -1004 236 -107 2 -222 2 -255 0z m415 -3274 c58 -42 77
-144 36 -202 -58 -82 -197 -77 -248 9 -23 39 -19 124 8 160 47 64 140 79 204
33z m-1 -497 c40 -30 63 -81 58 -132 -9 -84 -75 -136 -162 -127 -42 5 -56 12
-86 44 -33 35 -36 44 -36 96 0 47 4 63 25 88 14 17 40 37 57 44 39 18 110 12
144 -13z m-6 -492 c40 -26 56 -53 63 -104 13 -91 -50 -162 -143 -162 -90 0
-149 66 -139 158 9 83 58 127 141 127 32 0 60 -7 78 -19z m97 -651 l0 -170
-170 0 -170 0 0 170 0 170 170 0 170 0 0 -170z"/>
<path d="M5100 8145 c0 -14 2 -25 4 -25 2 0 6 11 8 25 3 14 1 25 -3 25 -5 0
-9 -11 -9 -25z"/>
<path d="M5072 8055 c0 -75 1 -77 10 -38 7 27 7 54 0 80 -9 34 -10 31 -10 -42z"/>
<path d="M6324 6828 c-158 -205 -389 -503 -513 -663 -124 -159 -229 -294 -233
-300 -4 -5 -22 -28 -41 -50 -18 -22 -88 -111 -155 -197 -67 -86 -126 -160
-131 -163 -5 -3 37 -53 93 -111 l102 -107 182 129 c100 71 228 162 284 201
194 137 309 218 524 371 118 83 217 152 219 152 2 0 74 51 160 113 86 61 211
150 279 197 68 47 137 96 154 110 l31 25 -328 333 c-180 182 -330 332 -333
332 -4 0 -136 -168 -294 -372z"/>
<path d="M5100 7055 c0 -11 16 -78 35 -150 77 -292 207 -568 384 -818 l56 -79
28 34 c15 18 54 68 87 110 l60 77 -79 55 c-98 69 -263 231 -334 328 -97 133
-169 267 -216 403 -11 33 -20 51 -21 40z"/>
<path d="M4990 5331 c-163 -35 -262 -180 -229 -335 41 -195 254 -291 425 -191
163 96 185 337 42 459 -61 53 -167 82 -238 67z"/>
<path d="M3505 5038 c-61 -117 -111 -217 -113 -223 -1 -5 96 -61 217 -123
l220 -113 44 83 c143 267 185 357 174 366 -9 7 -384 200 -427 220 -3 1 -55
-93 -115 -210z"/>
<path d="M6505 5149 c-28 -28 -182 -170 -342 -316 -161 -145 -293 -266 -293
-269 0 -3 19 -26 43 -50 23 -25 42 -49 42 -53 0 -5 -39 -44 -86 -87 -340 -313
-573 -685 -719 -1146 -10 -32 -16 -58 -14 -58 2 0 -1 -12 -6 -26 -22 -58 -82
-405 -79 -464 0 -14 0 -86 -1 -161 -1 -122 14 -352 25 -368 2 -4 9 -45 15 -91
6 -47 18 -110 27 -140 118 -415 231 -649 467 -964 76 -102 317 -343 426 -426
382 -292 788 -458 1270 -519 109 -14 459 -14 570 -1 209 26 384 67 565 132
127 46 378 162 415 192 8 6 35 22 60 36 185 98 466 344 635 555 73 92 185 248
185 259 0 3 15 29 33 58 105 165 218 449 275 688 43 180 52 248 52 415 l0 165
-1252 2 c-689 2 -1758 1 -2375 -1 -1079 -4 -1123 -4 -1129 14 -9 23 11 261 32
375 60 330 197 658 388 924 111 155 264 320 384 414 l42 34 83 -80 82 -81 100
122 c55 67 198 222 319 344 121 123 218 224 215 225 -2 2 -17 14 -32 28 l-28
24 -154 -154 c-123 -123 -157 -152 -167 -142 -10 10 19 44 142 167 l155 155
-23 22 -22 23 -154 -154 c-135 -135 -176 -166 -176 -132 0 4 68 75 152 159
152 151 152 151 133 172 l-19 21 -151 -151 c-82 -82 -156 -150 -162 -150 -38
0 -12 36 128 176 152 152 153 153 134 174 l-19 21 -151 -151 c-82 -82 -156
-150 -162 -150 -38 0 -12 36 128 176 152 152 153 153 134 174 l-19 21 -151
-151 c-82 -82 -156 -150 -162 -150 -38 0 -12 36 128 176 l154 154 -21 20 -20
20 -49 -51z m-55 -764 c-1 -5 -30 -41 -65 -80 l-64 -70 -175 175 -176 175 72
72 73 73 167 -167 c93 -92 168 -172 168 -178z"/>
<path d="M6062 4637 c-28 -29 -52 -57 -52 -62 0 -6 63 -73 140 -150 l140 -140
57 58 58 57 -145 145 -145 145 -53 -53z"/>
<path d="M2310 5023 c-904 -100 -1639 -603 -2036 -1393 -116 -231 -185 -446
-235 -740 -29 -169 -32 -567 -5 -735 57 -355 144 -605 314 -905 167 -293 460
-609 754 -812 338 -235 751 -385 1170 -428 71 -8 130 -11 132 -9 5 5 8 1737 7
3857 l-1 1172 -32 -2 c-18 0 -49 -3 -68 -5z"/>
<path d="M4260 4605 c-85 -101 -155 -188 -155 -194 0 -9 359 -321 370 -321 3
0 276 315 313 362 12 14 -9 35 -173 175 -102 87 -189 159 -193 160 -4 1 -77
-80 -162 -182z"/>
<path d="M2570 3730 l0 -1050 1128 2 c1120 3 1127 3 1126 23 -3 58 -33 216
-69 359 -24 99 -117 333 -179 450 -43 81 -56 102 -135 226 -115 179 -329 408
-521 555 -98 76 -263 181 -367 234 -112 56 -363 152 -433 166 -12 2 -37 9 -54
14 -97 28 -359 71 -438 71 l-58 0 0 -1050z"/>
<path d="M4787 3951 c-115 -60 -211 -112 -214 -114 -4 -4 209 -429 223 -446 2
-2 9 1 16 6 11 8 242 130 385 202 l42 21 -112 220 c-61 121 -116 220 -122 219
-5 0 -104 -49 -218 -108z"/>
</g>
</svg>
