<?xml version="1.0" standalone="no"?>
<!DOCTYPE svg PUBLIC "-//W3C//DTD SVG 20010904//EN"
 "http://www.w3.org/TR/2001/REC-SVG-20010904/DTD/svg10.dtd">
<svg version="1.0" xmlns="http://www.w3.org/2000/svg"
 width="1008.000000pt" height="1008.000000pt" viewBox="0 0 1008.000000 1008.000000"
 preserveAspectRatio="xMidYMid meet">

<g transform="translate(0.000000,1008.000000) scale(0.100000,-0.100000)"
fill="#000000" stroke="none">
<path d="M2355 9889 c-33 -4 -98 -13 -145 -19 -105 -15 -288 -61 -395 -99 -44
-16 -102 -37 -130 -46 -84 -30 -324 -157 -430 -227 -463 -307 -818 -776 -979
-1293 -64 -207 -116 -506 -116 -672 l0 -63 2435 0 2435 0 0 68 c0 88 -25 299
-50 422 -72 353 -222 680 -452 987 -94 126 -325 357 -451 452 -382 286 -798
448 -1262 491 -127 12 -372 11 -460 -1z"/>
<path d="M7482 7468 l3 -2433 115 3 c495 10 1021 214 1431 552 456 377 761
915 855 1504 21 137 30 484 15 625 -56 539 -290 1041 -666 1430 -330 342 -723
569 -1178 681 -138 34 -396 70 -505 70 l-72 0 2 -2432z"/>
<path d="M5038 7330 c-19 -346 -110 -675 -273 -988 -295 -564 -787 -985 -1386
-1186 -184 -62 -367 -102 -509 -112 -52 -4 -101 -10 -108 -13 -7 -4 42 -13
108 -20 714 -73 1365 -467 1769 -1071 217 -324 365 -738 399 -1116 l8 -89 8
70 c28 257 91 516 173 715 79 192 224 437 358 605 149 188 409 416 621 547
286 177 698 320 984 344 47 3 91 10 98 13 7 4 -47 15 -120 24 -361 47 -724
182 -1020 380 -168 112 -261 188 -400 328 -414 419 -662 977 -696 1569 l-7
125 -7 -125z"/>
<path d="M2458 5019 c-503 -34 -982 -220 -1373 -534 -92 -73 -251 -230 -335
-330 -478 -567 -669 -1317 -524 -2050 52 -259 177 -576 314 -795 421 -674
1121 -1096 1905 -1150 77 -5 146 -10 153 -10 10 0 12 491 10 2437 -3 2158 -5
2438 -18 2439 -8 1 -68 -2 -132 -7z"/>
<path d="M6268 2593 l-1218 -3 0 -70 c0 -38 9 -140 20 -226 46 -360 168 -700
355 -993 340 -534 861 -911 1471 -1065 287 -73 673 -92 944 -47 304 51 511
118 767 251 774 400 1289 1211 1306 2055 l2 100 -1215 0 c-668 0 -1763 -1
-2432 -2z"/>
</g>
</svg>
